<svg width="351" height="183" viewBox="0 0 351 183" fill="none" xmlns="http://www.w3.org/2000/svg">
<path fill-rule="evenodd" clip-rule="evenodd" d="M49.284 145.62L68.5177 48.1381H112.992C132.224 49.342 141.841 58.9688 141.841 75.8188C141.841 104.702 119.003 121.551 98.5666 120.347H76.9321L72.1236 145.62H49.284ZM81.7391 102.296L87.75 66.1906H103.376C111.791 66.1906 117.8 69.8008 117.8 77.0213C116.599 97.4815 106.982 101.092 96.1644 102.296H81.7391ZM137.373 120.347L156.605 22.8666H179.445L174.636 48.1381H196.272C215.506 49.342 222.718 58.9688 220.314 71.0047L211.9 120.347H187.859L196.273 75.8188C197.475 69.8008 197.475 66.1906 189.061 66.1906H171.03L160.212 120.347H137.373ZM210.36 145.62L229.592 48.1381H274.068C293.302 49.342 302.918 58.9688 302.918 75.8188C302.918 104.702 280.079 121.551 259.644 120.347H238.007L233.198 145.62H210.36ZM242.814 102.296L248.825 66.1906H264.452C272.867 66.1906 278.876 69.8008 278.876 77.0213C277.675 97.4815 268.058 101.092 257.24 102.296H242.814Z" fill="#232531"/>
<path fill-rule="evenodd" clip-rule="evenodd" d="M49.284 145.62L68.5177 48.1381H112.992C132.224 49.342 141.841 58.9688 141.841 75.8188C141.841 104.702 119.003 121.551 98.5666 120.347H76.9321L72.1236 145.62H49.284ZM137.373 120.347L156.605 22.8666H179.445L174.636 48.1381H196.272C215.506 49.342 222.718 58.9688 220.314 71.0047L211.9 120.347H187.859L196.273 75.8188C197.475 69.8008 197.475 66.1906 189.061 66.1906H171.03L160.212 120.347H137.373ZM210.36 145.62L229.592 48.1381H274.068C293.302 49.342 302.918 58.9688 302.918 75.8188C302.918 104.702 280.079 121.551 259.644 120.347H238.007L233.198 145.62H210.36ZM81.7391 102.296L87.75 66.1906H103.376C111.791 66.1906 117.8 69.8008 117.8 77.0213C116.599 97.4815 106.982 101.092 96.1644 102.296H81.7391ZM248.825 66.1906L242.814 102.296H257.24C268.058 101.092 277.675 97.4815 278.876 77.0213C278.876 69.8008 272.867 66.1906 264.452 66.1906H248.825Z" fill="black"/>
</svg>
